<mxfile host="Electron" agent="Mozilla/5.0 (Windows NT 10.0; Win64; x64) AppleWebKit/537.36 (KHTML, like Gecko) draw.io/24.7.8 Chrome/128.0.6613.36 Electron/32.0.1 Safari/537.36" version="24.7.8">
  <diagram id="R2lEEEUBdFMjLlhIrx00" name="Page-1">
    <mxGraphModel dx="1067" dy="1607" grid="1" gridSize="10" guides="1" tooltips="1" connect="1" arrows="1" fold="1" page="1" pageScale="1" pageWidth="850" pageHeight="1100" math="0" shadow="0" extFonts="Permanent Marker^https://fonts.googleapis.com/css?family=Permanent+Marker">
      <root>
        <mxCell id="0" />
        <mxCell id="1" parent="0" />
        <mxCell id="_f_VrW1oVVDcM-MaUN4l-191" value="" style="line;strokeWidth=1;rotatable=0;dashed=0;labelPosition=right;align=left;verticalAlign=middle;spacingTop=0;spacingLeft=6;points=[];portConstraint=eastwest;" parent="1" vertex="1">
          <mxGeometry x="186.5" y="616" width="553.5" height="10" as="geometry" />
        </mxCell>
        <mxCell id="_f_VrW1oVVDcM-MaUN4l-113" value="" style="endArrow=none;html=1;rounded=0;" parent="1" target="_f_VrW1oVVDcM-MaUN4l-7" edge="1">
          <mxGeometry relative="1" as="geometry">
            <mxPoint x="309.40999999999997" y="223" as="sourcePoint" />
            <mxPoint x="309.40999999999997" y="487" as="targetPoint" />
          </mxGeometry>
        </mxCell>
        <mxCell id="_f_VrW1oVVDcM-MaUN4l-87" value="" style="endArrow=none;html=1;rounded=0;entryX=1;entryY=0.5;entryDx=0;entryDy=0;exitX=0.5;exitY=1;exitDx=0;exitDy=0;" parent="1" target="_f_VrW1oVVDcM-MaUN4l-85" edge="1" source="_f_VrW1oVVDcM-MaUN4l-9">
          <mxGeometry relative="1" as="geometry">
            <mxPoint x="702.1" y="632" as="sourcePoint" />
            <mxPoint x="699.9999999999999" y="740" as="targetPoint" />
            <Array as="points">
              <mxPoint x="790" y="680" />
            </Array>
          </mxGeometry>
        </mxCell>
        <mxCell id="_f_VrW1oVVDcM-MaUN4l-10" value="" style="line;strokeWidth=1;rotatable=0;dashed=0;labelPosition=right;align=left;verticalAlign=middle;spacingTop=0;spacingLeft=6;points=[];portConstraint=eastwest;" parent="1" vertex="1">
          <mxGeometry x="200" y="199" width="530" height="10" as="geometry" />
        </mxCell>
        <mxCell id="_f_VrW1oVVDcM-MaUN4l-2" value="Nombre" style="ellipse;whiteSpace=wrap;html=1;align=center;" parent="1" vertex="1">
          <mxGeometry x="101.5" y="183" width="100" height="40" as="geometry" />
        </mxCell>
        <mxCell id="_f_VrW1oVVDcM-MaUN4l-5" value="Animal" style="whiteSpace=wrap;html=1;align=center;" parent="1" vertex="1">
          <mxGeometry x="260" y="184" width="100" height="40" as="geometry" />
        </mxCell>
        <mxCell id="_f_VrW1oVVDcM-MaUN4l-6" value="Especies&amp;nbsp;" style="whiteSpace=wrap;html=1;align=center;" parent="1" vertex="1">
          <mxGeometry x="629" y="184" width="100" height="40" as="geometry" />
        </mxCell>
        <mxCell id="_f_VrW1oVVDcM-MaUN4l-7" value="hÃ¡bitats" style="whiteSpace=wrap;html=1;align=center;" parent="1" vertex="1">
          <mxGeometry x="262" y="599" width="100" height="40" as="geometry" />
        </mxCell>
        <mxCell id="_f_VrW1oVVDcM-MaUN4l-9" value="Visitantes" style="whiteSpace=wrap;html=1;align=center;" parent="1" vertex="1">
          <mxGeometry x="740.5" y="599" width="100" height="40" as="geometry" />
        </mxCell>
        <mxCell id="_f_VrW1oVVDcM-MaUN4l-14" value="" style="endArrow=none;html=1;rounded=0;entryX=1;entryY=0.5;entryDx=0;entryDy=0;exitX=1;exitY=0.5;exitDx=0;exitDy=0;" parent="1" edge="1" target="_f_VrW1oVVDcM-MaUN4l-30" source="_f_VrW1oVVDcM-MaUN4l-15">
          <mxGeometry relative="1" as="geometry">
            <mxPoint x="240" y="116" as="sourcePoint" />
            <mxPoint x="240" y="300" as="targetPoint" />
            <Array as="points">
              <mxPoint x="240" y="120" />
              <mxPoint x="240" y="278" />
            </Array>
          </mxGeometry>
        </mxCell>
        <mxCell id="_f_VrW1oVVDcM-MaUN4l-15" value="AnimalID" style="ellipse;whiteSpace=wrap;html=1;align=center;fontStyle=4;" parent="1" vertex="1">
          <mxGeometry x="110" y="100" width="100" height="40" as="geometry" />
        </mxCell>
        <mxCell id="_f_VrW1oVVDcM-MaUN4l-24" value="Nombre" style="ellipse;whiteSpace=wrap;html=1;align=center;" parent="1" vertex="1">
          <mxGeometry x="819" y="183" width="100" height="40" as="geometry" />
        </mxCell>
        <mxCell id="_f_VrW1oVVDcM-MaUN4l-26" value="" style="line;strokeWidth=1;rotatable=0;dashed=0;labelPosition=right;align=left;verticalAlign=middle;spacingTop=0;spacingLeft=6;points=[];portConstraint=eastwest;" parent="1" vertex="1">
          <mxGeometry x="770" y="107" width="39" height="10" as="geometry" />
        </mxCell>
        <mxCell id="_f_VrW1oVVDcM-MaUN4l-27" value="" style="endArrow=none;html=1;rounded=0;" parent="1" edge="1">
          <mxGeometry relative="1" as="geometry">
            <mxPoint x="769" y="112.5" as="sourcePoint" />
            <mxPoint x="769" y="390" as="targetPoint" />
          </mxGeometry>
        </mxCell>
        <mxCell id="_f_VrW1oVVDcM-MaUN4l-28" value="EspecieID" style="ellipse;whiteSpace=wrap;html=1;align=center;fontStyle=4;" parent="1" vertex="1">
          <mxGeometry x="810" y="92" width="129" height="48" as="geometry" />
        </mxCell>
        <mxCell id="_f_VrW1oVVDcM-MaUN4l-29" value="" style="line;strokeWidth=1;rotatable=0;dashed=0;labelPosition=right;align=left;verticalAlign=middle;spacingTop=0;spacingLeft=6;points=[];portConstraint=eastwest;" parent="1" vertex="1">
          <mxGeometry x="770" y="290" width="39" height="10" as="geometry" />
        </mxCell>
        <mxCell id="_f_VrW1oVVDcM-MaUN4l-30" value="FechaNacimiento" style="ellipse;whiteSpace=wrap;html=1;align=center;" parent="1" vertex="1">
          <mxGeometry x="90.5" y="250" width="122" height="55" as="geometry" />
        </mxCell>
        <mxCell id="_f_VrW1oVVDcM-MaUN4l-32" value="" style="line;strokeWidth=1;rotatable=0;dashed=0;labelPosition=right;align=left;verticalAlign=middle;spacingTop=0;spacingLeft=6;points=[];portConstraint=eastwest;" parent="1" vertex="1">
          <mxGeometry x="729" y="198" width="90" height="10" as="geometry" />
        </mxCell>
        <mxCell id="_f_VrW1oVVDcM-MaUN4l-44" value="" style="line;strokeWidth=1;rotatable=0;dashed=0;labelPosition=right;align=left;verticalAlign=middle;spacingTop=0;spacingLeft=6;points=[];portConstraint=eastwest;" parent="1" vertex="1">
          <mxGeometry x="182.5" y="529" width="30" height="10" as="geometry" />
        </mxCell>
        <mxCell id="_f_VrW1oVVDcM-MaUN4l-45" value="" style="endArrow=none;html=1;rounded=0;" parent="1" edge="1">
          <mxGeometry relative="1" as="geometry">
            <mxPoint x="212.5" y="534" as="sourcePoint" />
            <mxPoint x="210" y="790" as="targetPoint" />
          </mxGeometry>
        </mxCell>
        <mxCell id="_f_VrW1oVVDcM-MaUN4l-46" value="HabitadID" style="ellipse;whiteSpace=wrap;html=1;align=center;fontStyle=4;" parent="1" vertex="1">
          <mxGeometry x="82.5" y="518" width="100" height="40" as="geometry" />
        </mxCell>
        <mxCell id="_f_VrW1oVVDcM-MaUN4l-47" value="" style="line;strokeWidth=1;rotatable=0;dashed=0;labelPosition=right;align=left;verticalAlign=middle;spacingTop=0;spacingLeft=6;points=[];portConstraint=eastwest;" parent="1" vertex="1">
          <mxGeometry x="190.5" y="710" width="22" height="10" as="geometry" />
        </mxCell>
        <mxCell id="_f_VrW1oVVDcM-MaUN4l-85" value="Nombre" style="ellipse;whiteSpace=wrap;html=1;align=center;" parent="1" vertex="1">
          <mxGeometry x="600" y="660" width="110" height="43" as="geometry" />
        </mxCell>
        <mxCell id="_f_VrW1oVVDcM-MaUN4l-88" value="VisitanteID" style="ellipse;whiteSpace=wrap;html=1;align=center;fontStyle=4;" parent="1" vertex="1">
          <mxGeometry x="860" y="655" width="129" height="48" as="geometry" />
        </mxCell>
        <mxCell id="_f_VrW1oVVDcM-MaUN4l-91" value="FechaVisita" style="ellipse;whiteSpace=wrap;html=1;align=center;" parent="1" vertex="1">
          <mxGeometry x="734.5" y="720" width="110" height="43" as="geometry" />
        </mxCell>
        <mxCell id="_f_VrW1oVVDcM-MaUN4l-95" value="Pertenece" style="shape=rhombus;perimeter=rhombusPerimeter;whiteSpace=wrap;html=1;align=center;" parent="1" vertex="1">
          <mxGeometry x="435.5" y="172" width="120" height="60" as="geometry" />
        </mxCell>
        <mxCell id="_f_VrW1oVVDcM-MaUN4l-100" value="" style="shape=table;startSize=0;container=1;collapsible=1;childLayout=tableLayout;fixedRows=1;rowLines=0;fontStyle=0;align=center;resizeLast=1;strokeColor=none;fillColor=none;collapsible=0;whiteSpace=wrap;html=1;" parent="1" vertex="1">
          <mxGeometry x="350" y="181" width="180" height="30" as="geometry" />
        </mxCell>
        <mxCell id="_f_VrW1oVVDcM-MaUN4l-101" value="" style="shape=tableRow;horizontal=0;startSize=0;swimlaneHead=0;swimlaneBody=0;fillColor=none;collapsible=0;dropTarget=0;points=[[0,0.5],[1,0.5]];portConstraint=eastwest;top=0;left=0;right=0;bottom=0;" parent="_f_VrW1oVVDcM-MaUN4l-100" vertex="1">
          <mxGeometry width="180" height="30" as="geometry" />
        </mxCell>
        <mxCell id="_f_VrW1oVVDcM-MaUN4l-102" value="" style="shape=partialRectangle;connectable=0;fillColor=none;top=0;left=0;bottom=0;right=0;editable=1;overflow=hidden;" parent="_f_VrW1oVVDcM-MaUN4l-101" vertex="1">
          <mxGeometry width="30" height="30" as="geometry">
            <mxRectangle width="30" height="30" as="alternateBounds" />
          </mxGeometry>
        </mxCell>
        <mxCell id="_f_VrW1oVVDcM-MaUN4l-103" value="(1,1)" style="shape=partialRectangle;connectable=0;fillColor=none;top=0;left=0;bottom=0;right=0;align=left;spacingLeft=6;overflow=hidden;" parent="_f_VrW1oVVDcM-MaUN4l-101" vertex="1">
          <mxGeometry x="30" width="150" height="30" as="geometry">
            <mxRectangle width="150" height="30" as="alternateBounds" />
          </mxGeometry>
        </mxCell>
        <mxCell id="_f_VrW1oVVDcM-MaUN4l-104" value="" style="shape=table;startSize=0;container=1;collapsible=1;childLayout=tableLayout;fixedRows=1;rowLines=0;fontStyle=0;align=center;resizeLast=1;strokeColor=none;fillColor=none;collapsible=0;whiteSpace=wrap;html=1;" parent="1" vertex="1">
          <mxGeometry x="541" y="181" width="180" height="30" as="geometry" />
        </mxCell>
        <mxCell id="_f_VrW1oVVDcM-MaUN4l-105" value="" style="shape=tableRow;horizontal=0;startSize=0;swimlaneHead=0;swimlaneBody=0;fillColor=none;collapsible=0;dropTarget=0;points=[[0,0.5],[1,0.5]];portConstraint=eastwest;top=0;left=0;right=0;bottom=0;" parent="_f_VrW1oVVDcM-MaUN4l-104" vertex="1">
          <mxGeometry width="180" height="30" as="geometry" />
        </mxCell>
        <mxCell id="_f_VrW1oVVDcM-MaUN4l-106" value="" style="shape=partialRectangle;connectable=0;fillColor=none;top=0;left=0;bottom=0;right=0;editable=1;overflow=hidden;" parent="_f_VrW1oVVDcM-MaUN4l-105" vertex="1">
          <mxGeometry width="30" height="30" as="geometry">
            <mxRectangle width="30" height="30" as="alternateBounds" />
          </mxGeometry>
        </mxCell>
        <mxCell id="_f_VrW1oVVDcM-MaUN4l-107" value="(n,1)" style="shape=partialRectangle;connectable=0;fillColor=none;top=0;left=0;bottom=0;right=0;align=left;spacingLeft=6;overflow=hidden;" parent="_f_VrW1oVVDcM-MaUN4l-105" vertex="1">
          <mxGeometry x="30" width="150" height="30" as="geometry">
            <mxRectangle width="150" height="30" as="alternateBounds" />
          </mxGeometry>
        </mxCell>
        <mxCell id="_f_VrW1oVVDcM-MaUN4l-108" value="" style="shape=table;startSize=0;container=1;collapsible=1;childLayout=tableLayout;fixedRows=1;rowLines=0;fontStyle=0;align=center;resizeLast=1;strokeColor=none;fillColor=none;collapsible=0;whiteSpace=wrap;html=1;" parent="1" vertex="1">
          <mxGeometry x="449" y="142" width="180" height="30" as="geometry" />
        </mxCell>
        <mxCell id="_f_VrW1oVVDcM-MaUN4l-109" value="" style="shape=tableRow;horizontal=0;startSize=0;swimlaneHead=0;swimlaneBody=0;fillColor=none;collapsible=0;dropTarget=0;points=[[0,0.5],[1,0.5]];portConstraint=eastwest;top=0;left=0;right=0;bottom=0;" parent="_f_VrW1oVVDcM-MaUN4l-108" vertex="1">
          <mxGeometry width="180" height="30" as="geometry" />
        </mxCell>
        <mxCell id="_f_VrW1oVVDcM-MaUN4l-110" value="" style="shape=partialRectangle;connectable=0;fillColor=none;top=0;left=0;bottom=0;right=0;editable=1;overflow=hidden;" parent="_f_VrW1oVVDcM-MaUN4l-109" vertex="1">
          <mxGeometry width="30" height="30" as="geometry">
            <mxRectangle width="30" height="30" as="alternateBounds" />
          </mxGeometry>
        </mxCell>
        <mxCell id="_f_VrW1oVVDcM-MaUN4l-111" value="1:N" style="shape=partialRectangle;connectable=0;fillColor=none;top=0;left=0;bottom=0;right=0;align=left;spacingLeft=6;overflow=hidden;" parent="_f_VrW1oVVDcM-MaUN4l-109" vertex="1">
          <mxGeometry x="30" width="150" height="30" as="geometry">
            <mxRectangle width="150" height="30" as="alternateBounds" />
          </mxGeometry>
        </mxCell>
        <mxCell id="_f_VrW1oVVDcM-MaUN4l-112" value="Vive" style="shape=rhombus;perimeter=rhombusPerimeter;whiteSpace=wrap;html=1;align=center;" parent="1" vertex="1">
          <mxGeometry x="250" y="390" width="120" height="60" as="geometry" />
        </mxCell>
        <mxCell id="_f_VrW1oVVDcM-MaUN4l-114" value="(1,1)" style="shape=partialRectangle;connectable=0;fillColor=none;top=0;left=0;bottom=0;right=0;align=left;spacingLeft=6;overflow=hidden;" parent="1" vertex="1">
          <mxGeometry x="310" y="315" width="150" height="30" as="geometry">
            <mxRectangle width="150" height="30" as="alternateBounds" />
          </mxGeometry>
        </mxCell>
        <mxCell id="_f_VrW1oVVDcM-MaUN4l-115" value="(1,n)" style="shape=partialRectangle;connectable=0;fillColor=none;top=0;left=0;bottom=0;right=0;align=left;spacingLeft=6;overflow=hidden;" parent="1" vertex="1">
          <mxGeometry x="310" y="515" width="150" height="30" as="geometry">
            <mxRectangle width="150" height="30" as="alternateBounds" />
          </mxGeometry>
        </mxCell>
        <mxCell id="_f_VrW1oVVDcM-MaUN4l-116" value="" style="shape=table;startSize=0;container=1;collapsible=1;childLayout=tableLayout;fixedRows=1;rowLines=0;fontStyle=0;align=center;resizeLast=1;strokeColor=none;fillColor=none;collapsible=0;whiteSpace=wrap;html=1;" parent="1" vertex="1">
          <mxGeometry x="335" y="405" width="180" height="30" as="geometry" />
        </mxCell>
        <mxCell id="_f_VrW1oVVDcM-MaUN4l-117" value="" style="shape=tableRow;horizontal=0;startSize=0;swimlaneHead=0;swimlaneBody=0;fillColor=none;collapsible=0;dropTarget=0;points=[[0,0.5],[1,0.5]];portConstraint=eastwest;top=0;left=0;right=0;bottom=0;" parent="_f_VrW1oVVDcM-MaUN4l-116" vertex="1">
          <mxGeometry width="180" height="30" as="geometry" />
        </mxCell>
        <mxCell id="_f_VrW1oVVDcM-MaUN4l-118" value="" style="shape=partialRectangle;connectable=0;fillColor=none;top=0;left=0;bottom=0;right=0;editable=1;overflow=hidden;" parent="_f_VrW1oVVDcM-MaUN4l-117" vertex="1">
          <mxGeometry width="30" height="30" as="geometry">
            <mxRectangle width="30" height="30" as="alternateBounds" />
          </mxGeometry>
        </mxCell>
        <mxCell id="_f_VrW1oVVDcM-MaUN4l-119" value="1:N" style="shape=partialRectangle;connectable=0;fillColor=none;top=0;left=0;bottom=0;right=0;align=left;spacingLeft=6;overflow=hidden;" parent="_f_VrW1oVVDcM-MaUN4l-117" vertex="1">
          <mxGeometry x="30" width="150" height="30" as="geometry">
            <mxRectangle width="150" height="30" as="alternateBounds" />
          </mxGeometry>
        </mxCell>
        <mxCell id="_f_VrW1oVVDcM-MaUN4l-120" value="Visitar" style="shape=rhombus;perimeter=rhombusPerimeter;whiteSpace=wrap;html=1;align=center;" parent="1" vertex="1">
          <mxGeometry x="490" y="591" width="120" height="60" as="geometry" />
        </mxCell>
        <mxCell id="_f_VrW1oVVDcM-MaUN4l-151" value="Cuidadores&amp;nbsp;" style="whiteSpace=wrap;html=1;align=center;" parent="1" vertex="1">
          <mxGeometry x="257.5" y="-231" width="100" height="40" as="geometry" />
        </mxCell>
        <mxCell id="_f_VrW1oVVDcM-MaUN4l-152" value="FechaContratacion" style="ellipse;whiteSpace=wrap;html=1;align=center;" parent="1" vertex="1">
          <mxGeometry x="447.5" y="-234" width="110" height="43" as="geometry" />
        </mxCell>
        <mxCell id="_f_VrW1oVVDcM-MaUN4l-153" value="" style="line;strokeWidth=1;rotatable=0;dashed=0;labelPosition=right;align=left;verticalAlign=middle;spacingTop=0;spacingLeft=6;points=[];portConstraint=eastwest;" parent="1" vertex="1">
          <mxGeometry x="398.5" y="-310" width="39" height="10" as="geometry" />
        </mxCell>
        <mxCell id="_f_VrW1oVVDcM-MaUN4l-154" value="" style="endArrow=none;html=1;rounded=0;exitX=0;exitY=0.5;exitDx=0;exitDy=0;" parent="1" edge="1" source="CWQcFqfPkocyrtYv_xVw-3">
          <mxGeometry relative="1" as="geometry">
            <mxPoint x="398" y="-400" as="sourcePoint" />
            <mxPoint x="397.5" y="-123.5" as="targetPoint" />
            <Array as="points">
              <mxPoint x="398" y="-488" />
            </Array>
          </mxGeometry>
        </mxCell>
        <mxCell id="_f_VrW1oVVDcM-MaUN4l-155" value="CuidadorID" style="ellipse;whiteSpace=wrap;html=1;align=center;fontStyle=4;" parent="1" vertex="1">
          <mxGeometry x="460" y="-422.5" width="129" height="48" as="geometry" />
        </mxCell>
        <mxCell id="_f_VrW1oVVDcM-MaUN4l-157" value="" style="line;strokeWidth=1;rotatable=0;dashed=0;labelPosition=right;align=left;verticalAlign=middle;spacingTop=0;spacingLeft=6;points=[];portConstraint=eastwest;" parent="1" vertex="1">
          <mxGeometry x="357.5" y="-219" width="90" height="10" as="geometry" />
        </mxCell>
        <mxCell id="_f_VrW1oVVDcM-MaUN4l-158" value="Especialidad&amp;nbsp;" style="ellipse;shape=doubleEllipse;margin=3;whiteSpace=wrap;html=1;align=center;" parent="1" vertex="1">
          <mxGeometry x="446.5" y="-144" width="100" height="40" as="geometry" />
        </mxCell>
        <mxCell id="_f_VrW1oVVDcM-MaUN4l-170" value="" style="endArrow=none;html=1;rounded=0;" parent="1" edge="1">
          <mxGeometry relative="1" as="geometry">
            <mxPoint x="310" y="-190" as="sourcePoint" />
            <mxPoint x="310" y="185" as="targetPoint" />
          </mxGeometry>
        </mxCell>
        <mxCell id="_f_VrW1oVVDcM-MaUN4l-169" value="Cargo" style="shape=rhombus;perimeter=rhombusPerimeter;whiteSpace=wrap;html=1;align=center;" parent="1" vertex="1">
          <mxGeometry x="250" y="-40" width="120" height="60" as="geometry" />
        </mxCell>
        <mxCell id="_f_VrW1oVVDcM-MaUN4l-172" value="" style="line;strokeWidth=1;rotatable=0;dashed=0;labelPosition=right;align=left;verticalAlign=middle;spacingTop=0;spacingLeft=6;points=[];portConstraint=eastwest;" parent="1" vertex="1">
          <mxGeometry x="396.5" y="-129" width="53.5" height="10" as="geometry" />
        </mxCell>
        <mxCell id="_f_VrW1oVVDcM-MaUN4l-173" value="Nombre" style="ellipse;whiteSpace=wrap;html=1;align=center;" parent="1" vertex="1">
          <mxGeometry x="435.5" y="-326.5" width="110" height="43" as="geometry" />
        </mxCell>
        <mxCell id="_f_VrW1oVVDcM-MaUN4l-174" value="" style="line;strokeWidth=1;rotatable=0;dashed=0;labelPosition=right;align=left;verticalAlign=middle;spacingTop=0;spacingLeft=6;points=[];portConstraint=eastwest;" parent="1" vertex="1">
          <mxGeometry x="400" y="-458.5" width="60" height="120" as="geometry" />
        </mxCell>
        <mxCell id="_f_VrW1oVVDcM-MaUN4l-175" value="" style="shape=table;startSize=0;container=1;collapsible=1;childLayout=tableLayout;fixedRows=1;rowLines=0;fontStyle=0;align=center;resizeLast=1;strokeColor=none;fillColor=none;collapsible=0;whiteSpace=wrap;html=1;" parent="1" vertex="1">
          <mxGeometry x="245" y="-129" width="180" height="30" as="geometry" />
        </mxCell>
        <mxCell id="_f_VrW1oVVDcM-MaUN4l-176" value="" style="shape=tableRow;horizontal=0;startSize=0;swimlaneHead=0;swimlaneBody=0;fillColor=none;collapsible=0;dropTarget=0;points=[[0,0.5],[1,0.5]];portConstraint=eastwest;top=0;left=0;right=0;bottom=0;" parent="_f_VrW1oVVDcM-MaUN4l-175" vertex="1">
          <mxGeometry width="180" height="30" as="geometry" />
        </mxCell>
        <mxCell id="_f_VrW1oVVDcM-MaUN4l-177" value="" style="shape=partialRectangle;connectable=0;fillColor=none;top=0;left=0;bottom=0;right=0;editable=1;overflow=hidden;" parent="_f_VrW1oVVDcM-MaUN4l-176" vertex="1">
          <mxGeometry width="30" height="30" as="geometry">
            <mxRectangle width="30" height="30" as="alternateBounds" />
          </mxGeometry>
        </mxCell>
        <mxCell id="_f_VrW1oVVDcM-MaUN4l-178" value="(1,n)" style="shape=partialRectangle;connectable=0;fillColor=none;top=0;left=0;bottom=0;right=0;align=left;spacingLeft=6;overflow=hidden;" parent="_f_VrW1oVVDcM-MaUN4l-176" vertex="1">
          <mxGeometry x="30" width="150" height="30" as="geometry">
            <mxRectangle width="150" height="30" as="alternateBounds" />
          </mxGeometry>
        </mxCell>
        <mxCell id="_f_VrW1oVVDcM-MaUN4l-179" value="" style="shape=table;startSize=0;container=1;collapsible=1;childLayout=tableLayout;fixedRows=1;rowLines=0;fontStyle=0;align=center;resizeLast=1;strokeColor=none;fillColor=none;collapsible=0;whiteSpace=wrap;html=1;" parent="1" vertex="1">
          <mxGeometry x="245" y="87" width="180" height="30" as="geometry" />
        </mxCell>
        <mxCell id="_f_VrW1oVVDcM-MaUN4l-180" value="" style="shape=tableRow;horizontal=0;startSize=0;swimlaneHead=0;swimlaneBody=0;fillColor=none;collapsible=0;dropTarget=0;points=[[0,0.5],[1,0.5]];portConstraint=eastwest;top=0;left=0;right=0;bottom=0;" parent="_f_VrW1oVVDcM-MaUN4l-179" vertex="1">
          <mxGeometry width="180" height="30" as="geometry" />
        </mxCell>
        <mxCell id="_f_VrW1oVVDcM-MaUN4l-181" value="" style="shape=partialRectangle;connectable=0;fillColor=none;top=0;left=0;bottom=0;right=0;editable=1;overflow=hidden;" parent="_f_VrW1oVVDcM-MaUN4l-180" vertex="1">
          <mxGeometry width="30" height="30" as="geometry">
            <mxRectangle width="30" height="30" as="alternateBounds" />
          </mxGeometry>
        </mxCell>
        <mxCell id="_f_VrW1oVVDcM-MaUN4l-182" value="(1,1)" style="shape=partialRectangle;connectable=0;fillColor=none;top=0;left=0;bottom=0;right=0;align=left;spacingLeft=6;overflow=hidden;" parent="_f_VrW1oVVDcM-MaUN4l-180" vertex="1">
          <mxGeometry x="30" width="150" height="30" as="geometry">
            <mxRectangle width="150" height="30" as="alternateBounds" />
          </mxGeometry>
        </mxCell>
        <mxCell id="_f_VrW1oVVDcM-MaUN4l-183" value="" style="shape=table;startSize=0;container=1;collapsible=1;childLayout=tableLayout;fixedRows=1;rowLines=0;fontStyle=0;align=center;resizeLast=1;strokeColor=none;fillColor=none;collapsible=0;whiteSpace=wrap;html=1;" parent="1" vertex="1">
          <mxGeometry x="340" y="-25" width="180" height="30" as="geometry" />
        </mxCell>
        <mxCell id="_f_VrW1oVVDcM-MaUN4l-184" value="" style="shape=tableRow;horizontal=0;startSize=0;swimlaneHead=0;swimlaneBody=0;fillColor=none;collapsible=0;dropTarget=0;points=[[0,0.5],[1,0.5]];portConstraint=eastwest;top=0;left=0;right=0;bottom=0;" parent="_f_VrW1oVVDcM-MaUN4l-183" vertex="1">
          <mxGeometry width="180" height="30" as="geometry" />
        </mxCell>
        <mxCell id="_f_VrW1oVVDcM-MaUN4l-185" value="" style="shape=partialRectangle;connectable=0;fillColor=none;top=0;left=0;bottom=0;right=0;editable=1;overflow=hidden;" parent="_f_VrW1oVVDcM-MaUN4l-184" vertex="1">
          <mxGeometry width="30" height="30" as="geometry">
            <mxRectangle width="30" height="30" as="alternateBounds" />
          </mxGeometry>
        </mxCell>
        <mxCell id="_f_VrW1oVVDcM-MaUN4l-186" value="1:N" style="shape=partialRectangle;connectable=0;fillColor=none;top=0;left=0;bottom=0;right=0;align=left;spacingLeft=6;overflow=hidden;" parent="_f_VrW1oVVDcM-MaUN4l-184" vertex="1">
          <mxGeometry x="30" width="150" height="30" as="geometry">
            <mxRectangle width="150" height="30" as="alternateBounds" />
          </mxGeometry>
        </mxCell>
        <mxCell id="_f_VrW1oVVDcM-MaUN4l-188" value="Familia" style="ellipse;shape=doubleEllipse;margin=3;whiteSpace=wrap;html=1;align=center;" parent="1" vertex="1">
          <mxGeometry x="810" y="270.5" width="130" height="55" as="geometry" />
        </mxCell>
        <mxCell id="_f_VrW1oVVDcM-MaUN4l-189" value="EstadoConservacion" style="ellipse;shape=doubleEllipse;margin=3;whiteSpace=wrap;html=1;align=center;" parent="1" vertex="1">
          <mxGeometry x="809" y="362" width="130" height="55" as="geometry" />
        </mxCell>
        <mxCell id="_f_VrW1oVVDcM-MaUN4l-190" value="" style="line;strokeWidth=1;rotatable=0;dashed=0;labelPosition=right;align=left;verticalAlign=middle;spacingTop=0;spacingLeft=6;points=[];portConstraint=eastwest;" parent="1" vertex="1">
          <mxGeometry x="771" y="384.5" width="39" height="10" as="geometry" />
        </mxCell>
        <mxCell id="_f_VrW1oVVDcM-MaUN4l-192" value="Ubicacion" style="ellipse;shape=doubleEllipse;margin=3;whiteSpace=wrap;html=1;align=center;" parent="1" vertex="1">
          <mxGeometry x="90.5" y="695" width="100" height="40" as="geometry" />
        </mxCell>
        <mxCell id="_f_VrW1oVVDcM-MaUN4l-193" value="Clima" style="ellipse;shape=doubleEllipse;margin=3;whiteSpace=wrap;html=1;align=center;" parent="1" vertex="1">
          <mxGeometry x="86.5" y="768" width="100" height="40" as="geometry" />
        </mxCell>
        <mxCell id="_f_VrW1oVVDcM-MaUN4l-196" value="Nombre" style="ellipse;whiteSpace=wrap;html=1;align=center;" parent="1" vertex="1">
          <mxGeometry x="87" y="601" width="100" height="40" as="geometry" />
        </mxCell>
        <mxCell id="_f_VrW1oVVDcM-MaUN4l-197" value="" style="line;strokeWidth=1;rotatable=0;dashed=0;labelPosition=right;align=left;verticalAlign=middle;spacingTop=0;spacingLeft=6;points=[];portConstraint=eastwest;" parent="1" vertex="1">
          <mxGeometry x="186.5" y="783" width="22" height="10" as="geometry" />
        </mxCell>
        <mxCell id="_f_VrW1oVVDcM-MaUN4l-198" value="" style="shape=table;startSize=0;container=1;collapsible=1;childLayout=tableLayout;fixedRows=1;rowLines=0;fontStyle=0;align=center;resizeLast=1;strokeColor=none;fillColor=none;collapsible=0;whiteSpace=wrap;html=1;" parent="1" vertex="1">
          <mxGeometry x="630.5" y="599" width="180" height="30" as="geometry" />
        </mxCell>
        <mxCell id="_f_VrW1oVVDcM-MaUN4l-199" value="" style="shape=tableRow;horizontal=0;startSize=0;swimlaneHead=0;swimlaneBody=0;fillColor=none;collapsible=0;dropTarget=0;points=[[0,0.5],[1,0.5]];portConstraint=eastwest;top=0;left=0;right=0;bottom=0;" parent="_f_VrW1oVVDcM-MaUN4l-198" vertex="1">
          <mxGeometry width="180" height="30" as="geometry" />
        </mxCell>
        <mxCell id="_f_VrW1oVVDcM-MaUN4l-200" value="" style="shape=partialRectangle;connectable=0;fillColor=none;top=0;left=0;bottom=0;right=0;editable=1;overflow=hidden;" parent="_f_VrW1oVVDcM-MaUN4l-199" vertex="1">
          <mxGeometry width="30" height="30" as="geometry">
            <mxRectangle width="30" height="30" as="alternateBounds" />
          </mxGeometry>
        </mxCell>
        <mxCell id="_f_VrW1oVVDcM-MaUN4l-201" value="(n,1)" style="shape=partialRectangle;connectable=0;fillColor=none;top=0;left=0;bottom=0;right=0;align=left;spacingLeft=6;overflow=hidden;" parent="_f_VrW1oVVDcM-MaUN4l-199" vertex="1">
          <mxGeometry x="30" width="150" height="30" as="geometry">
            <mxRectangle width="150" height="30" as="alternateBounds" />
          </mxGeometry>
        </mxCell>
        <mxCell id="_f_VrW1oVVDcM-MaUN4l-202" value="" style="shape=table;startSize=0;container=1;collapsible=1;childLayout=tableLayout;fixedRows=1;rowLines=0;fontStyle=0;align=center;resizeLast=1;strokeColor=none;fillColor=none;collapsible=0;whiteSpace=wrap;html=1;" parent="1" vertex="1">
          <mxGeometry x="396.5" y="599" width="180" height="30" as="geometry" />
        </mxCell>
        <mxCell id="_f_VrW1oVVDcM-MaUN4l-203" value="" style="shape=tableRow;horizontal=0;startSize=0;swimlaneHead=0;swimlaneBody=0;fillColor=none;collapsible=0;dropTarget=0;points=[[0,0.5],[1,0.5]];portConstraint=eastwest;top=0;left=0;right=0;bottom=0;" parent="_f_VrW1oVVDcM-MaUN4l-202" vertex="1">
          <mxGeometry width="180" height="30" as="geometry" />
        </mxCell>
        <mxCell id="_f_VrW1oVVDcM-MaUN4l-204" value="" style="shape=partialRectangle;connectable=0;fillColor=none;top=0;left=0;bottom=0;right=0;editable=1;overflow=hidden;" parent="_f_VrW1oVVDcM-MaUN4l-203" vertex="1">
          <mxGeometry width="30" height="30" as="geometry">
            <mxRectangle width="30" height="30" as="alternateBounds" />
          </mxGeometry>
        </mxCell>
        <mxCell id="_f_VrW1oVVDcM-MaUN4l-205" value="(1,n)" style="shape=partialRectangle;connectable=0;fillColor=none;top=0;left=0;bottom=0;right=0;align=left;spacingLeft=6;overflow=hidden;" parent="_f_VrW1oVVDcM-MaUN4l-203" vertex="1">
          <mxGeometry x="30" width="150" height="30" as="geometry">
            <mxRectangle width="150" height="30" as="alternateBounds" />
          </mxGeometry>
        </mxCell>
        <mxCell id="_f_VrW1oVVDcM-MaUN4l-206" value="" style="shape=table;startSize=0;container=1;collapsible=1;childLayout=tableLayout;fixedRows=1;rowLines=0;fontStyle=0;align=center;resizeLast=1;strokeColor=none;fillColor=none;collapsible=0;whiteSpace=wrap;html=1;" parent="1" vertex="1">
          <mxGeometry x="502" y="565" width="180" height="30" as="geometry" />
        </mxCell>
        <mxCell id="_f_VrW1oVVDcM-MaUN4l-207" value="" style="shape=tableRow;horizontal=0;startSize=0;swimlaneHead=0;swimlaneBody=0;fillColor=none;collapsible=0;dropTarget=0;points=[[0,0.5],[1,0.5]];portConstraint=eastwest;top=0;left=0;right=0;bottom=0;" parent="_f_VrW1oVVDcM-MaUN4l-206" vertex="1">
          <mxGeometry width="180" height="30" as="geometry" />
        </mxCell>
        <mxCell id="_f_VrW1oVVDcM-MaUN4l-208" value="" style="shape=partialRectangle;connectable=0;fillColor=none;top=0;left=0;bottom=0;right=0;editable=1;overflow=hidden;" parent="_f_VrW1oVVDcM-MaUN4l-207" vertex="1">
          <mxGeometry width="30" height="30" as="geometry">
            <mxRectangle width="30" height="30" as="alternateBounds" />
          </mxGeometry>
        </mxCell>
        <mxCell id="_f_VrW1oVVDcM-MaUN4l-209" value="M:N" style="shape=partialRectangle;connectable=0;fillColor=none;top=0;left=0;bottom=0;right=0;align=left;spacingLeft=6;overflow=hidden;" parent="_f_VrW1oVVDcM-MaUN4l-207" vertex="1">
          <mxGeometry x="30" width="150" height="30" as="geometry">
            <mxRectangle width="150" height="30" as="alternateBounds" />
          </mxGeometry>
        </mxCell>
        <mxCell id="CWQcFqfPkocyrtYv_xVw-1" value="1. Animales - Especie&lt;div&gt;&lt;br&gt;&lt;div&gt;Relacion de uno a muchos&lt;/div&gt;&lt;div&gt;&lt;br&gt;&lt;div&gt;2.Animales - Habitat&amp;nbsp;&amp;nbsp;&lt;/div&gt;&lt;div&gt;&lt;br&gt;&lt;/div&gt;&lt;div&gt;Relacion de uno a muchos&lt;br&gt;&lt;/div&gt;&lt;div&gt;&lt;br&gt;&lt;/div&gt;&lt;div&gt;3. Animales - Cuidadores&lt;/div&gt;&lt;div&gt;&lt;br&gt;&lt;/div&gt;&lt;div&gt;Relacion de uno a muchos&lt;br&gt;&lt;/div&gt;&lt;div&gt;&lt;br&gt;&lt;/div&gt;&lt;div&gt;4. Visitantes - Habitats&lt;/div&gt;&lt;/div&gt;&lt;div&gt;&lt;br&gt;&lt;/div&gt;&lt;div&gt;Relacion muchos a muchos&lt;/div&gt;&lt;/div&gt;" style="whiteSpace=wrap;html=1;aspect=fixed;align=left;" vertex="1" parent="1">
          <mxGeometry x="610" y="-400" width="240" height="240" as="geometry" />
        </mxCell>
        <mxCell id="CWQcFqfPkocyrtYv_xVw-3" value="Salario" style="ellipse;whiteSpace=wrap;html=1;align=center;" vertex="1" parent="1">
          <mxGeometry x="460" y="-510" width="110" height="43" as="geometry" />
        </mxCell>
        <mxCell id="CWQcFqfPkocyrtYv_xVw-4" value="" style="endArrow=none;html=1;rounded=0;entryX=0;entryY=0.5;entryDx=0;entryDy=0;" edge="1" parent="1" target="_f_VrW1oVVDcM-MaUN4l-88">
          <mxGeometry width="50" height="50" relative="1" as="geometry">
            <mxPoint x="790" y="680" as="sourcePoint" />
            <mxPoint x="890.5" y="680" as="targetPoint" />
          </mxGeometry>
        </mxCell>
        <mxCell id="CWQcFqfPkocyrtYv_xVw-5" value="" style="endArrow=none;html=1;rounded=0;entryX=0.5;entryY=1;entryDx=0;entryDy=0;" edge="1" parent="1" source="_f_VrW1oVVDcM-MaUN4l-91" target="_f_VrW1oVVDcM-MaUN4l-9">
          <mxGeometry width="50" height="50" relative="1" as="geometry">
            <mxPoint x="630" y="770" as="sourcePoint" />
            <mxPoint x="680" y="720" as="targetPoint" />
          </mxGeometry>
        </mxCell>
        <mxCell id="CWQcFqfPkocyrtYv_xVw-6" value="Relaciones" style="rounded=0;whiteSpace=wrap;html=1;" vertex="1" parent="1">
          <mxGeometry x="660.5" y="-470" width="120" height="60" as="geometry" />
        </mxCell>
      </root>
    </mxGraphModel>
  </diagram>
</mxfile>
